<?xml version="1.0" encoding="UTF-8" standalone="no"?>
<!-- Created with Inkscape (http://www.inkscape.org/) -->

<svg
   width="177.05901mm"
   height="43.687153mm"
   viewBox="0 0 177.05901 43.687153"
   version="1.1"
   id="svg1062"
   inkscape:version="1.1 (ce6663b3b7, 2021-05-25)"
   sodipodi:docname="logo_and_text_white.svg"
   xmlns:inkscape="http://www.inkscape.org/namespaces/inkscape"
   xmlns:sodipodi="http://sodipodi.sourceforge.net/DTD/sodipodi-0.dtd"
   xmlns="http://www.w3.org/2000/svg"
   xmlns:svg="http://www.w3.org/2000/svg">
  <sodipodi:namedview
     id="namedview1064"
     pagecolor="#ffffff"
     bordercolor="#666666"
     borderopacity="1.0"
     inkscape:pageshadow="2"
     inkscape:pageopacity="0.0"
     inkscape:pagecheckerboard="0"
     inkscape:document-units="mm"
     showgrid="false"
     inkscape:snap-bbox="true"
     inkscape:snap-page="true"
     fit-margin-top="2"
     fit-margin-left="2"
     fit-margin-right="2"
     fit-margin-bottom="2"
     lock-margins="true"
     inkscape:zoom="1.5554293"
     inkscape:cx="355.2074"
     inkscape:cy="42.75347"
     inkscape:window-width="2560"
     inkscape:window-height="1376"
     inkscape:window-x="0"
     inkscape:window-y="0"
     inkscape:window-maximized="1"
     inkscape:current-layer="layer1" />
  <defs
     id="defs1059" />
  <g
     inkscape:label="Layer 1"
     inkscape:groupmode="layer"
     id="layer1"
     transform="translate(2.0000018,2.0000064)">
    <g
       aria-label="digilego"
       id="text891-9-7-1-2-1-1-4-5-7-0-0-22-3-4-8-1-4-8-3-5"
       style="font-size:30.552px;line-height:1.25;font-family:'DejaVu Serif';-inkscape-font-specification:'DejaVu Serif, Normal';letter-spacing:0px;word-spacing:0px;display:inline;fill:#ffffff;stroke-width:0.168159"
       transform="matrix(1.5734215,0,0,1.5734215,-26.1025,-296.31026)"
       inkscape:label="digilego_white">
      <path
         d="m 120.89651,207.04438 q -2.28426,0 -3.9118,-1.77031 -1.65609,-1.79885 -1.65609,-4.34009 0,-2.39848 1.65609,-4.14023 1.62754,-1.71319 3.96891,-1.71319 2.34137,0 4.02601,1.71319 1.59898,1.74175 1.59898,4.14023 0,2.54124 -1.59898,4.34009 -1.68464,1.77031 -4.08312,1.77031 z m 0.48541,-0.79949 q 1.28489,0 2.11294,-1.42767 0.9137,-1.39911 0.9137,-3.39784 0,-2.31281 -1.17068,-3.9118 -1.14213,-1.59898 -2.74111,-1.59898 -1.22779,0 -2.05584,1.342 -0.88515,1.34201 -0.88515,3.25508 0,2.36992 1.11358,4.08312 1.17068,1.65609 2.71256,1.65609 z"
         id="path2129-31-8-1-9-0-0-8-8-7-8"
         inkscape:label="o"
         style="fill:#ffffff" />
      <path
         d="m 107.07675,212.38384 q -1.79885,0 -3.08375,-0.74239 -1.342,-0.77094 -1.342,-1.85596 0,-0.77094 0.68527,-1.57043 0.71384,-0.79949 1.77031,-1.42766 -0.48541,-0.19988 -0.79949,-0.57107 -0.39975,-0.37119 -0.39975,-0.8566 0,-0.62817 0.62817,-1.37055 0.57107,-0.74239 1.54188,-1.39911 -0.99937,-0.31409 -1.62754,-1.37056 -0.65672,-1.02792 -0.65672,-2.36992 0,-1.51333 1.25634,-2.65546 1.25634,-1.11357 2.96954,-1.11357 2.11294,0 3.28363,0.71383 h 2.59834 v 0.94226 h -1.91306 q 0.25697,0.22842 0.34263,0.88515 0.19988,0.62817 0.19988,1.45621 0,1.62754 -1.17069,2.76967 -1.19923,1.14213 -2.85532,1.14213 -1.17069,0 -1.62754,-0.17132 l -0.37119,0.3712 q -0.94226,0.97081 -0.94226,1.25634 0,0.34264 0.8566,0.59962 0.8566,0.25698 2.08439,0.25698 2.684,0 4.02601,0.62817 1.37055,0.71383 1.37055,1.99873 0,2.02728 -1.82741,3.25507 -1.88451,1.19924 -4.99682,1.19924 z m 1.37056,-1.51333 q 1.7703,0 3.22652,-0.74238 1.45622,-0.77094 1.45622,-1.62754 0,-0.68528 -0.88516,-1.08502 -0.99936,-0.37119 -2.79822,-0.37119 l -3.4835,-0.11422 q -0.57106,0.71384 -0.94225,1.2849 -0.31409,0.57107 -0.31409,0.8566 0,0.71383 1.14213,1.2849 1.08503,0.51395 2.59835,0.51395 z m 0.25698,-8.70874 q 0.77094,0 1.342,-0.62817 0.51396,-0.59962 0.51396,-1.51333 0,-1.68464 -0.82804,-2.79822 -0.79949,-1.17068 -1.91307,-1.17068 -0.74239,0 -1.2849,0.59962 -0.54251,0.65672 -0.54251,1.54187 0,1.68465 0.82804,2.85533 0.79949,1.11358 1.88452,1.11358 z"
         id="path2127-76-2-5-9-6-1-6-5-1-4"
         inkscape:label="g"
         style="fill:#ffffff" />
      <path
         d="m 96.312182,207.04438 q -2.027282,0 -3.454945,-1.77031 -1.456217,-1.79885 -1.456217,-4.34009 0,-2.36992 1.456217,-4.14023 1.427663,-1.71319 3.483499,-1.71319 2.055835,0 3.483499,1.59898 1.456215,1.54188 1.456215,3.88324 h -7.909254 q 0,1.82741 1.22779,3.19797 1.199238,1.31345 2.912434,1.31345 1.142131,0 2.141495,-0.68528 1.056475,-0.62817 1.770305,-1.88451 l 0.45685,0.31408 q -0.51396,1.88452 -2.055835,3.08376 -1.541877,1.14213 -3.512053,1.14213 z m -3.0552,-7.30964 h 5.796315 q -0.285533,-1.62754 -1.113578,-2.74111 -0.770938,-1.08503 -1.74175,-1.08503 -0.942258,0 -1.684643,1.08503 -0.828044,1.11357 -1.256344,3.48349 z"
         id="path2125-4-1-0-2-9-8-3-2-2-8"
         inkscape:label="e"
         style="fill:#ffffff" />
      <path
         d="m 84.091411,206.75884 v -0.51395 h 0.542512 q 0.542512,0 0.942258,-0.3712 0.371192,-0.39974 0.371192,-0.97081 v -12.76331 q 0,-0.4283 -0.285532,-0.77094 -0.199873,-0.34264 -0.571066,-0.34264 h -0.999364 v -0.54251 l 4.083117,-0.99937 v 15.41877 q 0,0.57107 0.371193,0.97081 0.428299,0.3712 0.913705,0.3712 h 0.542512 v 0.54251 h -5.910527 z"
         id="path2123-4-8-1-6-9-4-9-6-6-9"
         inkscape:label="l"
         style="fill:#ffffff" />
      <path
         d="m 77.724057,206.75884 v -0.51395 h 0.542512 q 0.542512,0 0.942258,-0.3712 0.371192,-0.39974 0.371192,-0.97081 v -7.4524 q 0,-0.22843 -0.171319,-0.4283 -0.17132,-0.19987 -0.485406,-0.19987 h -1.199237 v -0.39975 l 4.083117,-1.37056 v 9.85088 q 0,0.57107 0.314086,0.97081 0.34264,0.3712 0.770939,0.3712 h 0.513959 v 0.54251 h -5.682101 z m 2.88388,-14.53361 q -0.513959,0 -0.885151,-0.4283 -0.371193,-0.45685 -0.371193,-1.05647 0,-0.48541 0.371193,-0.8566 0.371192,-0.37119 0.942258,-0.37119 0.513958,0 0.885151,0.37119 0.314086,0.37119 0.314086,0.8566 0,0.59962 -0.314086,1.05647 -0.371193,0.4283 -0.942258,0.4283 z"
         id="path2121-4-54-2-0-2-8-8-4-9-5"
         inkscape:label="i"
         style="fill:#ffffff" />
      <path
         d="m 70.186015,212.38384 q -1.798856,0 -3.083753,-0.74239 -1.342004,-0.77094 -1.342004,-1.85596 0,-0.77094 0.685278,-1.57043 0.713832,-0.79949 1.770303,-1.42766 -0.485405,-0.19988 -0.799491,-0.57107 -0.399746,-0.37119 -0.399746,-0.8566 0,-0.62817 0.628172,-1.37055 0.571065,-0.74239 1.541876,-1.39911 -0.999364,-0.31409 -1.627536,-1.37056 -0.656725,-1.02792 -0.656725,-2.36992 0,-1.51333 1.256344,-2.65546 1.256344,-1.11357 2.96954,-1.11357 2.112942,0 3.283626,0.71383 h 2.598348 v 0.94226 h -1.913069 q 0.256979,0.22842 0.342639,0.88515 0.199873,0.62817 0.199873,1.45621 0,1.62754 -1.170684,2.76967 -1.199238,1.14213 -2.855328,1.14213 -1.170684,0 -1.627536,-0.17132 l -0.371192,0.3712 q -0.942258,0.97081 -0.942258,1.25634 0,0.34264 0.856598,0.59962 0.856598,0.25698 2.084388,0.25698 2.684008,0 4.026012,0.62817 1.370557,0.71383 1.370557,1.99873 0,2.02728 -1.82741,3.25507 -1.884516,1.19924 -4.996822,1.19924 z m 1.370557,-1.51333 q 1.770303,0 3.22652,-0.74238 1.456216,-0.77094 1.456216,-1.62754 0,-0.68528 -0.885151,-1.08502 -0.999364,-0.37119 -2.798221,-0.37119 l -3.483499,-0.11422 q -0.571065,0.71384 -0.942258,1.2849 -0.314086,0.57107 -0.314086,0.8566 0,0.71383 1.142131,1.2849 1.085025,0.51395 2.598348,0.51395 z m 0.256979,-8.70874 q 0.770939,0 1.342004,-0.62817 0.513959,-0.59962 0.513959,-1.51333 0,-1.68464 -0.828045,-2.79822 -0.799491,-1.17068 -1.913069,-1.17068 -0.742385,0 -1.284897,0.59962 -0.542512,0.65672 -0.542512,1.54187 0,1.68465 0.828044,2.85533 0.799492,1.11358 1.884516,1.11358 z"
         id="path2119-4-7-0-4-8-9-2-6-5-1"
         inkscape:label="g"
         style="fill:#ffffff" />
      <path
         d="m 59.478565,206.75884 v -0.51395 h 0.542512 q 0.542512,0 0.942258,-0.3712 0.371192,-0.39974 0.371192,-0.97081 v -7.4524 q 0,-0.22843 -0.171319,-0.4283 -0.17132,-0.19987 -0.485406,-0.19987 h -1.199237 v -0.39975 l 4.083117,-1.37056 v 9.85088 q 0,0.57107 0.314086,0.97081 0.34264,0.3712 0.770939,0.3712 h 0.513959 v 0.54251 h -5.682101 z m 2.88388,-14.53361 q -0.513959,0 -0.885151,-0.4283 -0.371193,-0.45685 -0.371193,-1.05647 0,-0.48541 0.371193,-0.8566 0.371192,-0.37119 0.942258,-0.37119 0.513958,0 0.885151,0.37119 0.314086,0.37119 0.314086,0.8566 0,0.59962 -0.314086,1.05647 -0.371193,0.4283 -0.942258,0.4283 z"
         id="path2117-0-7-8-2-2-5-1-0-7-1"
         inkscape:label="i"
         style="fill:#ffffff" />
      <path
         d="m 51.512245,207.04438 q -1.913069,0 -3.255072,-1.7132 -1.399111,-1.74175 -1.399111,-4.14022 0,-2.51269 1.541877,-4.31155 1.627536,-1.79885 3.826138,-1.79885 0.742385,0 1.399111,0.22842 0.685278,0.25698 1.14213,0.62817 v -4.25443 q 0,-0.28554 -0.314086,-0.45686 -0.342639,-0.19987 -0.799491,-0.19987 h -0.542512 v -0.54251 l 3.826138,-0.99937 v 14.01966 q 0,0.71383 0.456852,1.2849 0.513959,0.51396 1.199238,0.51396 v 0.57106 l -3.826139,1.19924 v -1.2849 q -0.485405,0.51396 -1.31345,0.91371 -0.885151,0.34264 -1.941623,0.34264 z m 0.913705,-1.37056 q 0.656725,0 1.227791,-0.31409 0.599619,-0.34264 1.113577,-0.94225 v -6.79568 q -0.456852,-0.79949 -1.14213,-1.25635 -0.628172,-0.45685 -1.399111,-0.45685 -1.284897,0 -2.198602,1.19924 -0.942258,1.19924 -0.942258,2.91243 0,2.34137 0.999365,4.02601 0.999364,1.62754 2.341368,1.62754 z"
         id="path2115-3-4-6-7-7-1-8-5-1-6"
         inkscape:label="d"
         style="fill:#ffffff" />
    </g>
    <g
       id="g25774"
       transform="matrix(1.6714899,0,0,1.6714899,-17.65818,-263.15294)"
       style="stroke-width:0.598269"
       inkscape:label="symbol">
      <g
         id="g113721-6-1-9-7"
         transform="matrix(1.1871785,0,0,1.1871786,-13.859724,-96.463824)"
         style="fill:#4f9e4e;fill-opacity:1;stroke-width:0.503941"
         inkscape:label="field">
        <path
           id="rect105256-3-7-6-7-5"
           style="fill:#70ad47;fill-opacity:1;stroke-width:0.125986;stroke-linecap:round;stroke-linejoin:round;stroke-opacity:0;stop-color:#000000"
           d="m 20.573198,213.86839 h 10 v 10 0 z"
           sodipodi:nodetypes="ccccc" />
        <path
           style="fill:#317514;fill-opacity:1;stroke-width:0.50394"
           d="m 22.744771,216.03996 c 1.562098,-1.56209 4.094757,-1.56209 5.656854,0 1.562098,1.5621 1.562098,4.09476 0,5.65686"
           id="path1401" />
        <path
           style="fill:#70ad47;stroke-width:0.50394"
           d="m 28.401625,221.69682 c -1.562098,1.56209 -4.094757,1.56209 -5.656854,0 -1.562097,-1.5621 -1.562098,-4.09476 0,-5.65686"
           id="path95720-3-8-8-8-4-6-9-8" />
      </g>
      <g
         id="g113721-6-1-9-7-4"
         transform="matrix(0,1.1871785,-1.1871786,0,288.20789,133.0121)"
         style="fill:#4f9e4e;fill-opacity:1;stroke-width:0.503941"
         inkscape:label="quantitative">
        <path
           id="rect105256-3-7-6-7-5-8"
           style="fill:#767171;fill-opacity:1;stroke-width:0.125986;stroke-linecap:round;stroke-linejoin:round;stroke-opacity:0;stop-color:#000000"
           d="m 20.573198,213.86839 h 10 v 10 0 z"
           sodipodi:nodetypes="ccccc" />
        <path
           style="fill:#373232;fill-opacity:1;stroke-width:0.50394"
           d="m 22.744771,216.03996 c 1.562098,-1.56209 4.094757,-1.56209 5.656854,0 1.562098,1.5621 1.562098,4.09476 0,5.65686"
           id="path1401-1" />
        <path
           style="fill:#767171;fill-opacity:1;stroke-width:0.50394"
           d="m 28.401625,221.69682 c -1.562098,1.56209 -4.094757,1.56209 -5.656854,0 -1.562097,-1.5621 -1.562098,-4.09476 0,-5.65686"
           id="path95720-3-8-8-8-4-6-9-8-0" />
      </g>
      <g
         id="g113721-6-1-9-7-3"
         transform="matrix(-1.1871785,0,0,-1.1871786,58.73197,435.0797)"
         style="fill:#4f9e4e;fill-opacity:1;stroke-width:0.503941"
         inkscape:label="lab">
        <path
           id="rect105256-3-7-6-7-5-0"
           style="fill:#c55a11;fill-opacity:1;stroke-width:0.125986;stroke-linecap:round;stroke-linejoin:round;stroke-opacity:0;stop-color:#000000"
           d="m 20.573198,213.86839 h 10 v 10 0 z"
           sodipodi:nodetypes="ccccc" />
        <path
           style="fill:#982001;fill-opacity:1;stroke-width:0.50394"
           d="m 22.744771,216.03996 c 1.562098,-1.56209 4.094757,-1.56209 5.656854,0 1.562098,1.5621 1.562098,4.09476 0,5.65686"
           id="path1401-4" />
        <path
           style="fill:#c55a11;fill-opacity:1;stroke-width:0.50394"
           d="m 28.401625,221.69682 c -1.562098,1.56209 -4.094757,1.56209 -5.656854,0 -1.562097,-1.5621 -1.562098,-4.09476 0,-5.65686"
           id="path95720-3-8-8-8-4-6-9-8-4" />
      </g>
      <g
         id="g113721-6-1-9-7-3-4"
         transform="matrix(0,-1.1871785,1.1871786,0,-243.33564,205.60378)"
         style="fill:#4f9e4e;fill-opacity:1;stroke-width:0.503941"
         inkscape:label="qualitative">
        <path
           id="rect105256-3-7-6-7-5-0-4"
           style="fill:#2e75b6;fill-opacity:1;stroke-width:0.125986;stroke-linecap:round;stroke-linejoin:round;stroke-opacity:0;stop-color:#000000"
           d="m 20.573198,213.86839 h 10 v 10 0 z"
           sodipodi:nodetypes="ccccc" />
        <path
           style="fill:#083682;fill-opacity:1;stroke-width:0.50394"
           d="m 22.744771,216.03996 c 1.562098,-1.56209 4.094757,-1.56209 5.656854,0 1.562098,1.5621 1.562098,4.09476 0,5.65686"
           id="path1401-4-7" />
        <path
           style="fill:#2e75b6;fill-opacity:1;stroke-width:0.50394"
           d="m 28.401625,221.69682 c -1.562098,1.56209 -4.094757,1.56209 -5.656854,0 -1.562097,-1.5621 -1.562098,-4.09476 0,-5.65686"
           id="path95720-3-8-8-8-4-6-9-8-4-6" />
      </g>
    </g>
  </g>
</svg>
