<?xml version="1.0" encoding="UTF-8" standalone="no"?>
<!-- Created with Inkscape (http://www.inkscape.org/) -->

<svg
   width="448.06174mm"
   height="75.058273mm"
   viewBox="0 0 448.06174 75.058273"
   version="1.1"
   id="svg5"
   inkscape:version="1.1.2 (0a00cf5339, 2022-02-04)"
   sodipodi:docname="pacetrial.svg"
   xmlns:inkscape="http://www.inkscape.org/namespaces/inkscape"
   xmlns:sodipodi="http://sodipodi.sourceforge.net/DTD/sodipodi-0.dtd"
   xmlns:xlink="http://www.w3.org/1999/xlink"
   xmlns="http://www.w3.org/2000/svg"
   xmlns:svg="http://www.w3.org/2000/svg">
  <sodipodi:namedview
     id="namedview7"
     pagecolor="#292929"
     bordercolor="#666666"
     borderopacity="1.0"
     inkscape:pageshadow="2"
     inkscape:pageopacity="0"
     inkscape:pagecheckerboard="0"
     inkscape:document-units="mm"
     showgrid="false"
     lock-margins="true"
     fit-margin-top="10"
     fit-margin-left="10"
     fit-margin-right="10"
     fit-margin-bottom="10"
     inkscape:zoom="0.665"
     inkscape:cx="707.5188"
     inkscape:cy="-38.345865"
     inkscape:window-width="2560"
     inkscape:window-height="1376"
     inkscape:window-x="1920"
     inkscape:window-y="27"
     inkscape:window-maximized="1"
     inkscape:current-layer="layer1" />
  <defs
     id="defs2">
    <rect
       x="328.31256"
       y="-89.445396"
       width="309.27875"
       height="84.114204"
       id="rect23155" />
    <rect
       x="328.31256"
       y="-89.445396"
       width="309.27875"
       height="84.114204"
       id="rect23155-8" />
    <rect
       x="328.31256"
       y="-89.445396"
       width="309.27875"
       height="84.114204"
       id="rect38560" />
    <rect
       x="328.31256"
       y="-89.445396"
       width="309.27875"
       height="84.114204"
       id="rect38560-3" />
    <rect
       x="328.31256"
       y="-89.445396"
       width="309.27875"
       height="84.114204"
       id="rect23155-8-8" />
  </defs>
  <g
     inkscape:label="Layer 1"
     inkscape:groupmode="layer"
     id="layer1"
     transform="translate(-23.062229,-8.0538982)">
    <g
       id="g10066"
       inkscape:label="left"
       transform="matrix(0,0.07076853,-0.07096447,0,44.285562,39.890435)"
       style="stroke-width:14.1111">
      <path
         id="path1187"
         style="fill:#000000;stroke:none;stroke-width:3.73355px;stroke-linecap:butt;stroke-linejoin:miter;stroke-opacity:1"
         d="m 54.41699,31.130709 c -0.253595,-0.0036 -0.500517,0.01651 -0.743625,0.06873 -3.59864,0.05764 -7.649802,2.653829 -10.254154,5.205367 -2.60436,2.551534 -7.51577,8.069093 -9.194271,10.982791 -1.678487,2.9137 -5.0326,14.176869 -5.455481,17.514694 -0.422888,3.337824 -0.837988,11.447723 0.33228,17.472318 1.170281,6.024594 2.494939,16.085114 2.494939,17.53278 0,1.447661 1.524164,15.686101 1.214914,19.692341 -0.30928,4.00623 1.157115,11.14209 1.989026,13.67255 0.83194,2.53046 1.424114,7.32366 4.137213,8.76639 2.713101,1.44272 5.192149,2.47411 8.30027,2.30011 3.108129,-0.17399 6.090788,-0.86492 7.538558,-1.86138 1.44779,-0.99645 5.987463,-5.06333 6.270935,-6.28644 0.28349,-1.22311 1.819322,-6.06166 0.710033,-11.05566 -1.1093,-4.99399 -2.675858,-13.31107 -2.48512,-15.39285 0.190762,-2.08178 0.362064,-11.464877 1.642795,-14.87403 1.280718,-3.409153 4.499589,-15.13108 5.022948,-16.679085 0.52337,-1.548006 1.696111,-10.738051 1.763199,-14.68696 0.0671,-3.948906 0.48723,-13.372316 -0.105418,-16.205729 -0.59265,-2.833412 -1.992093,-8.469471 -3.003952,-10.215395 -1.01188,-1.745927 -4.307586,-4.904584 -6.262666,-5.217253 -1.588495,-0.254045 -2.813505,-0.717719 -3.912423,-0.733289 z m -1.066601,3.322278 c 0.912674,0.01466 1.930124,0.451263 3.249414,0.690398 1.62375,0.29432 4.360844,3.267342 5.201232,4.910812 0.84038,1.643468 2.002213,6.948811 2.494422,9.615951 0.4922,2.667137 0.14355,11.537711 0.08785,15.254882 -0.05572,3.717173 -1.02984,12.367831 -1.464511,13.824995 -0.434668,1.457163 -3.108166,12.491241 -4.171836,15.700334 -1.063673,3.209092 -1.205312,12.041591 -1.363742,14.001211 -0.158419,1.95962 1.14214,9.78811 2.06344,14.48904 0.921298,4.70093 -0.353671,9.25578 -0.589113,10.40712 -0.235429,1.15133 -4.006038,4.98 -5.208466,5.91798 -1.20242,0.93798 -3.679737,1.58805 -6.261118,1.75183 -2.581378,0.16379 -4.640334,-0.80718 -6.893634,-2.16524 -2.2533,-1.35806 -2.745026,-5.86973 -3.435967,-8.25169 -0.69093,-2.38197 -1.908429,-9.09888 -1.651579,-12.87002 0.25685,-3.77113 -1.00924,-17.17414 -1.00924,-18.536852 0,-1.362712 -1.100275,-10.833368 -2.072224,-16.504419 -0.971942,-5.671051 -0.627174,-13.304589 -0.275953,-16.44654 0.351219,-3.141951 3.136958,-13.744135 4.53099,-16.486848 1.394039,-2.742713 5.473244,-7.936584 7.636226,-10.338387 2.16298,-2.401806 5.527517,-4.845701 8.516276,-4.899962 0.201904,-0.04914 0.406916,-0.06798 0.617533,-0.0646 z" />
      <path
         id="path5057"
         style="fill:#ffffff;fill-opacity:1;stroke:none;stroke-width:3.73355px;stroke-linecap:butt;stroke-linejoin:miter;stroke-opacity:1"
         d="m 53.350204,34.452963 c -0.21061,-0.0034 -0.41563,0.01545 -0.61753,0.06459 -2.98876,0.05426 -6.3533,2.498154 -8.51628,4.899959 -2.16298,2.401803 -6.24218,7.595674 -7.63622,10.338387 -1.39403,2.742711 -4.17977,13.344899 -4.53099,16.486849 -0.35122,3.141948 -0.69599,10.77549 0.27595,16.446542 0.97195,5.67105 2.07223,15.141706 2.07223,16.504419 0,1.362711 1.26608,14.765721 1.00924,18.536851 -0.25685,3.77114 0.96064,10.48805 1.65157,12.87002 0.69095,2.38196 1.18267,6.89363 3.43597,8.25169 2.2533,1.35806 4.31226,2.32903 6.89363,2.16524 2.58139,-0.16378 5.0587,-0.81385 6.26112,-1.75183 1.20243,-0.93798 4.97304,-4.76666 5.20847,-5.91799 0.23544,-1.15133 1.51041,-5.70618 0.58911,-10.40711 -0.9213,-4.70093 -2.22186,-12.52942 -2.06344,-14.48904 0.15843,-1.95962 0.30007,-10.792119 1.36374,-14.001211 1.06367,-3.209092 3.73717,-14.243171 4.17184,-15.700334 0.43467,-1.457163 1.40881,-10.107823 1.46451,-13.824996 0.0557,-3.71717 0.40435,-12.587745 -0.0879,-15.254883 -0.49221,-2.66714 -1.65404,-7.972483 -2.49442,-9.61595 -0.84039,-1.64347 -3.57748,-4.616492 -5.20123,-4.91081 -1.31929,-0.239138 -2.33674,-0.675738 -3.24942,-0.690398 z"
         sodipodi:nodetypes="ccssssssssssssssssssscc" />
      <path
         id="path1271"
         style="display:inline;fill:#000000;stroke:none;stroke-width:4.94452px;stroke-linecap:butt;stroke-linejoin:miter;stroke-opacity:1"
         d="m 229.50781,177.07227 c -3.02747,0.0132 -6.10592,0.17949 -8.74414,0.62109 -7.19571,1.20433 -18.35229,2.39696 -21.45703,2.61719 -1.72896,0.12259 -18.04503,1.83988 -22.8418,1.55078 -4.79676,-0.28911 -13.33935,1.08169 -16.36914,1.85937 -3.02978,0.7777 -8.76867,1.33096 -10.49609,3.86719 -1.72741,2.53623 -2.96224,4.85427 -2.75391,7.75977 0.20832,2.9055 1.03543,5.69347 2.22852,7.04687 1.19307,1.3534 5.9761,5.72363 7.35937,6.27149 1.34758,0.53373 7.42486,1.29089 13.4043,0.2539 5.97944,-1.03697 15.93711,-2.50058 18.42969,-2.32226 2.49257,0.17833 13.72672,0.33794 17.80859,1.53515 4.08187,1.19724 18.11724,4.20606 19.97071,4.69531 1.85346,0.48925 12.75038,2.56621 17.47851,2.62891 4.72813,0.0627 14.11572,0.5133 19.4043,-0.0977 5.28858,-0.61094 10.24745,-2.84317 12.33789,-3.78907 2.09044,-0.9459 5.87173,-4.02785 6.24609,-5.85547 0.37437,-1.82762 1.12832,-3.13953 0.79492,-4.35156 -0.069,-3.36403 -3.17544,-7.15137 -6.23047,-9.58594 -3.05502,-2.43457 -9.66174,-7.02663 -13.15039,-8.5957 -3.48864,-1.56908 -16.97423,-5.08906 -20.9707,-5.48437 -2.49779,-0.24708 -7.40343,-0.64703 -12.44922,-0.625 z m -0.94336,0.87695 c 0.69606,0 1.25586,1.68145 1.25586,3.76953 v 26.9375 c 0,2.08808 -0.5598,3.76953 -1.25586,3.76953 -0.69606,0 -1.25586,-1.68145 -1.25586,-3.76953 v -26.9375 c 0,-2.08808 0.5598,-3.76953 1.25586,-3.76953 z m 3.83985,0 c 0.69606,0 1.25586,1.68145 1.25586,3.76953 v 27.56445 c 0,2.08808 -0.5598,3.76953 -1.25586,3.76953 -0.69606,0 -1.25782,-1.68145 -1.25782,-3.76953 v -27.56445 c 0,-2.08808 0.56176,-3.76953 1.25782,-3.76953 z m 3.83789,0.38281 c 0.69606,0 1.25586,1.68145 1.25586,3.76953 v 27.6543 c 0,2.08808 -0.5598,3.76953 -1.25586,3.76953 -0.69606,0 -1.25586,-1.68145 -1.25586,-3.76953 v -27.6543 c 0,-2.08808 0.5598,-3.76953 1.25586,-3.76953 z m -11.51758,0.5332 c 0.69606,0 1.25781,1.68146 1.25781,3.76954 v 25.01367 c 0,2.08808 -0.56175,3.76758 -1.25781,3.76758 -0.69606,0 -1.25586,-1.6795 -1.25586,-3.76758 v -25.01367 c 0,-2.08808 0.5598,-3.76954 1.25586,-3.76954 z m 15.35742,0.0527 c 0.69606,0 1.25586,1.68145 1.25586,3.76953 v 27.7793 c 0,2.08807 -0.5598,3.76953 -1.25586,3.76953 -0.69606,0 -1.25781,-1.68146 -1.25781,-3.76953 v -27.7793 c 0,-2.08808 0.56175,-3.76953 1.25781,-3.76953 z m -19.19531,0.3457 c 0.69606,0 1.25586,1.68146 1.25586,3.76953 v 23.74024 c 0,2.08808 -0.5598,3.76953 -1.25586,3.76953 -0.69606,0 -1.25586,-1.68145 -1.25586,-3.76953 v -23.7402 c 0,-2.08807 0.5598,-3.76953 1.25586,-3.76953 z m 23.0332,0.125 c 0.69606,0 1.25781,1.68146 1.25781,3.76953 v 27.3086 c 0,2.08807 -0.56175,3.76953 -1.25781,3.76953 -0.69606,0 -1.25586,-1.68146 -1.25586,-3.76953 v -27.3086 c 0,-2.08807 0.5598,-3.76953 1.25586,-3.76953 z m -26.87304,0.25 c 0.69605,0 1.25781,1.68146 1.25781,3.76953 v 22.42188 c 0,2.08808 -0.56176,3.76758 -1.25781,3.76758 -0.69607,0 -1.25586,-1.6795 -1.25586,-3.76758 V 183.4082 c 0,-2.08807 0.55979,-3.76953 1.25586,-3.76953 z m -3.8379,0.29102 c 0.69607,0 1.25586,1.68145 1.25586,3.76953 v 21.08789 c 0,2.08808 -0.55979,3.76953 -1.25586,3.76953 -0.69605,0 -1.25781,-1.68145 -1.25781,-3.76953 v -21.08789 c 0,-2.08808 0.56176,-3.76953 1.25781,-3.76953 z m -3.83984,0.35937 c 0.69606,0 1.25586,1.68146 1.25586,3.76953 v 20.04688 c 0,2.08808 -0.5598,3.76953 -1.25586,3.76953 -0.69606,0 -1.25586,-1.68145 -1.25586,-3.76953 v -20.04688 c 0,-2.08807 0.5598,-3.76953 1.25586,-3.76953 z m 38.39063,0.12305 c 0.69605,0 1.25585,1.68145 1.25585,3.76953 v 26.32617 c 10e-6,2.08808 -0.5598,3.76953 -1.25585,3.76953 -0.69607,0 -1.25586,-1.68145 -1.25586,-3.76953 V 184.1816 c 0,-2.08808 0.55979,-3.76953 1.25586,-3.76953 z m -42.23047,0.22656 c 0.69606,0 1.25781,1.68146 1.25781,3.76953 v 18.85157 c 0,2.08807 -0.56175,3.76953 -1.25781,3.76953 -0.69606,0 -1.25586,-1.68146 -1.25586,-3.76953 V 184.4082 c 0,-2.08807 0.5598,-3.76953 1.25586,-3.76953 z m -3.83789,0.29883 c 0.69606,0 1.25586,1.68145 1.25586,3.76953 v 18.0293 c 0,2.08808 -0.5598,3.76953 -1.25586,3.76953 -0.69606,0 -1.25586,-1.68145 -1.25586,-3.76953 v -18.0293 c 0,-2.08808 0.5598,-3.76953 1.25586,-3.76953 z m -3.83985,0.29297 c 0.69606,0 1.2578,1.68145 1.25782,3.76953 v 17.21289 c -10e-6,2.08808 -0.56176,3.76953 -1.25782,3.76953 -0.69606,0 -1.25586,-1.68145 -1.25586,-3.76953 V 185 c 0,-2.08808 0.5598,-3.76953 1.25586,-3.76953 z m 53.74805,0.16406 c 0.69606,0 1.25586,1.68145 1.25586,3.76953 v 25.89258 c 0,2.08808 -0.5598,3.76953 -1.25586,3.76953 -0.69606,0 -1.25781,-1.68145 -1.25781,-3.76953 v -25.89258 c 0,-2.08808 0.56175,-3.76953 1.25781,-3.76953 z m -57.58594,0.15625 c 0.69606,0 1.25586,1.68145 1.25586,3.76953 v 16.56055 c 0,2.08808 -0.5598,3.76953 -1.25586,3.76953 -0.69606,0 -1.25781,-1.68145 -1.25781,-3.76953 v -16.56055 c 0,-2.08808 0.56175,-3.76953 1.25781,-3.76953 z m -3.83984,0.34375 c 0.69606,0 1.25586,1.68145 1.25586,3.76953 v 16.2168 c 0,2.08808 -0.5598,3.76953 -1.25586,3.76953 -0.69605,0 -1.25586,-1.68145 -1.25586,-3.76953 v -16.2168 c 0,-2.08808 0.55981,-3.76953 1.25586,-3.76953 z m -3.83789,0.33203 c 0.69606,0 1.25586,1.6795 1.25586,3.76758 v 15.88672 c 0,2.08808 -0.5598,3.76953 -1.25586,3.76953 -0.69606,0 -1.25782,-1.68145 -1.25782,-3.76953 V 185.9941 c 0,-2.08808 0.56176,-3.76758 1.25782,-3.76758 z m 69.10156,0.32227 c 0.69606,0 1.25586,1.68145 1.25586,3.76953 v 24.73242 c 0,2.08808 -0.5598,3.76953 -1.25586,3.76953 -0.69606,0 -1.25586,-1.68145 -1.25586,-3.76953 v -24.73242 c 0,-2.08808 0.5598,-3.76953 1.25586,-3.76953 z m -72.94141,0.18164 c 0.69606,0 1.25586,1.6795 1.25586,3.76758 v 15.71484 c 0,2.08808 -0.5598,3.76953 -1.25586,3.76953 -0.69604,0 -1.25586,-1.68145 -1.25586,-3.76953 v -15.71484 c 0,-2.08808 0.55982,-3.76758 1.25586,-3.76758 z m -3.83984,0.0879 c 0.69606,0 1.25781,1.68145 1.25781,3.76953 v 16.14844 c 0,2.08808 -0.56175,3.76953 -1.25781,3.76953 -0.69606,0 -1.25586,-1.68145 -1.25586,-3.76953 v -16.14844 c 0,-2.08808 0.5598,-3.76953 1.25586,-3.76953 z m -3.83789,0.0898 c 0.69606,0 1.25586,1.68146 1.25586,3.76953 v 16.58204 c 0,2.08807 -0.5598,3.76953 -1.25586,3.76953 -0.69606,0 -1.25586,-1.68146 -1.25586,-3.76953 v -16.58204 c 0,-2.08807 0.5598,-3.76953 1.25586,-3.76953 z m 84.45898,0.25782 c 0.69606,0 1.25586,1.68145 1.25586,3.76953 v 23.36523 c 0,2.08808 -0.5598,3.76953 -1.25586,3.76953 -0.69606,0 -1.25781,-1.68145 -1.25781,-3.76953 v -23.36523 c 0,-2.08808 0.56175,-3.76953 1.25781,-3.76953 z m -88.29882,0.29687 c 0.69606,0 1.25781,1.68145 1.25781,3.76953 v 16.87305 c 0,2.08808 -0.56175,3.76953 -1.25781,3.76953 -0.69607,0 -1.25586,-1.68145 -1.25586,-3.76953 v -16.87305 c 0,-2.08808 0.55979,-3.76953 1.25586,-3.76953 z m -3.8379,0.48633 c 0.69607,0 1.25586,1.68145 1.25586,3.76953 v 17.06836 c 0,2.08808 -0.55979,3.76953 -1.25586,3.76953 -0.69604,0 -1.25781,-1.68145 -1.25781,-3.76953 v -17.06836 c 0,-2.08808 0.56177,-3.76953 1.25781,-3.76953 z m -3.83984,0.7168 c 0.69606,0 1.25586,1.6795 1.25586,3.76757 V 205.125 c 0,2.08808 -0.5598,3.76953 -1.25586,3.76953 -0.69606,0 -1.25586,-1.68145 -1.25586,-3.76953 v -16.69141 c 0,-2.08807 0.5598,-3.76757 1.25586,-3.76757 z m 99.81445,0.65039 c 0.69607,0 1.25782,1.6795 1.25782,3.76757 v 21.02149 c 0,2.08808 -0.56175,3.76953 -1.25782,3.76953 -0.69605,0 -1.25587,-1.68145 -1.25585,-3.76953 v -21.02149 c -10e-6,-2.08807 0.5598,-3.76757 1.25585,-3.76757 z m -103.65429,0.004 c 0.69606,0 1.25781,1.68146 1.25781,3.76953 v 15.64454 c 0,2.08807 -0.56175,3.76953 -1.25781,3.76953 -0.69606,0 -1.25586,-1.68146 -1.25586,-3.76953 v -15.64454 c 0,-2.08807 0.5598,-3.76953 1.25586,-3.76953 z m -3.83789,1.20508 c 0.69606,0 1.25586,1.68145 1.25586,3.76953 v 12.39063 c 0,2.08807 -0.5598,3.76953 -1.25586,3.76953 -0.69605,0 -1.25586,-1.68146 -1.25586,-3.76953 v -12.39063 c 0,-2.08808 0.55981,-3.76953 1.25586,-3.76953 z m -3.83985,1.41992 c 0.69606,0 1.25782,1.68146 1.25782,3.76953 v 7.69141 c 0,2.08808 -0.56176,3.76953 -1.25782,3.76953 -0.69606,0 -1.25586,-1.68145 -1.25586,-3.76953 v -7.69141 c 0,-2.08807 0.5598,-3.76953 1.25586,-3.76953 z m 115.17188,0.0234 c 0.69606,0 1.25586,1.6795 1.25586,3.76758 v 17.03711 c 0,2.08808 -0.5598,3.76953 -1.25586,3.76953 -0.69606,0 -1.25586,-1.68145 -1.25586,-3.76953 v -17.03711 c 0,-2.08808 0.5598,-3.76758 1.25586,-3.76758 z m 3.83789,1.99609 c 0.69606,0 1.25781,1.68146 1.25781,3.76954 v 14.4414 c 0,2.08808 -0.56175,3.76953 -1.25781,3.76953 -0.69606,0 -1.25586,-1.68145 -1.25586,-3.76953 v -14.4414 c 0,-2.08808 0.5598,-3.76954 1.25586,-3.76954 z m 3.83984,3.19727 c 0.69606,0 1.25586,1.68145 1.25586,3.76953 v 9.88867 c 0,2.08808 -0.5598,3.76953 -1.25586,3.76953 -0.69606,0 -1.25586,-1.68145 -1.25586,-3.76953 v -9.88867 c 0,-2.08808 0.5598,-3.76953 1.25586,-3.76953 z m 3.83985,3.77539 c 0.69606,0 1.25586,1.68145 1.25586,3.76953 v 2.23438 c 0,2.08807 -0.5598,3.76953 -1.25586,3.76953 -0.69606,0 -1.25782,-1.68146 -1.25782,-3.76953 v -2.23438 c 0,-2.08808 0.56176,-3.76953 1.25782,-3.76953 z"
         transform="matrix(0,-0.75404347,0.75613124,0,-100.21036,249.56733)" />
    </g>
    <use
       x="0"
       y="0"
       xlink:href="#g10066"
       id="use10075"
       width="100%"
       height="100%"
       transform="matrix(1,0,0,-1,12.814479,92.945366)"
       style="stroke-width:14.1111" />
    <use
       x="0"
       y="0"
       xlink:href="#g10066"
       id="use10579"
       width="100%"
       height="100%"
       transform="translate(25.628959)"
       style="stroke-width:14.1111" />
    <rect
       style="fill:#000000;fill-opacity:1;stroke:none;stroke-width:0.999998;stroke-linecap:round;stroke-linejoin:round;-inkscape-stroke:none;paint-order:stroke fill markers;stop-color:#000000"
       id="rect11964"
       width="1.0342864"
       height="26.617382"
       x="33.062229"
       y="27.041121"
       rx="0.5"
       ry="0.5" />
    <g
       id="g29647"
       transform="translate(-23.505289,24.338991)">
      <rect
         style="fill:#000000;fill-opacity:1;stroke:none;stroke-width:0.999998;stroke-linecap:round;stroke-linejoin:round;-inkscape-stroke:none;paint-order:stroke fill markers;stop-color:#000000"
         id="rect11964-0"
         width="1.0342864"
         height="6.3986154"
         x="46.519348"
         y="-41.12635"
         rx="1.3877788e-16"
         ry="1.3877786e-16"
         transform="rotate(45)" />
      <rect
         style="fill:#000000;fill-opacity:1;stroke:none;stroke-width:0.999998;stroke-linecap:round;stroke-linejoin:round;-inkscape-stroke:none;paint-order:stroke fill markers;stop-color:#000000"
         id="rect11964-0-3"
         width="1.0342864"
         height="6.3986154"
         x="-35.03067"
         y="-53.649315"
         rx="1.3877788e-16"
         ry="1.3877786e-16"
         transform="rotate(135)" />
      <rect
         style="fill:#000000;fill-opacity:1;stroke:none;stroke-width:0.999998;stroke-linecap:round;stroke-linejoin:round;-inkscape-stroke:none;paint-order:stroke fill markers;stop-color:#000000"
         id="rect11964-0-9"
         width="1.0342864"
         height="6.3986154"
         x="-331.01764"
         y="336.41068"
         rx="1.3877788e-16"
         ry="1.3877786e-16"
         transform="matrix(-0.70710678,0.70710678,0.70710678,0.70710678,0,0)" />
      <rect
         style="fill:#000000;fill-opacity:1;stroke:none;stroke-width:0.999998;stroke-linecap:round;stroke-linejoin:round;-inkscape-stroke:none;paint-order:stroke fill markers;stop-color:#000000"
         id="rect11964-0-3-2"
         width="1.0342864"
         height="6.3986154"
         x="342.50635"
         y="323.88776"
         rx="1.3877788e-16"
         ry="1.3877786e-16"
         transform="matrix(0.70710678,0.70710678,0.70710678,-0.70710678,0,0)" />
      <rect
         style="fill:#000000;fill-opacity:1;stroke:none;stroke-width:0.999995;stroke-linecap:round;stroke-linejoin:round;-inkscape-stroke:none;paint-order:stroke fill markers;stop-color:#000000"
         id="rect11964-3"
         width="1.0342864"
         height="418.18982"
         x="8.3379288"
         y="-475.6402"
         rx="1.3877788e-16"
         ry="1.3877788e-16"
         transform="rotate(90)" />
    </g>
    <rect
       style="fill:#000000;fill-opacity:1;stroke:none;stroke-width:0.999998;stroke-linecap:round;stroke-linejoin:round;-inkscape-stroke:none;paint-order:stroke fill markers;stop-color:#000000"
       id="rect11964-4"
       height="26.617382"
       x="452.42239"
       y="27.041121"
       rx="0.5"
       ry="0.5"
       width="1.034" />
    <text
       xml:space="preserve"
       transform="matrix(0.26458333,0,0,0.26458333,127.48493,40.110087)"
       id="text23153-9"
       style="font-size:42.6667px;line-height:1.25;font-family:sans-serif;white-space:pre;shape-inside:url(#rect23155-8)"><tspan
         x="328.3125"
         y="-51.695284"
         id="tspan1333">25 metres</tspan></text>
    <text
       xml:space="preserve"
       transform="matrix(0.26458333,0,0,0.26458333,130.70403,84.441705)"
       id="text23153-9-5"
       style="font-size:42.6667px;line-height:1.25;font-family:sans-serif;white-space:pre;shape-inside:url(#rect23155-8-8)"><tspan
         x="328.3125"
         y="-51.695284"
         id="tspan1335">32 paces</tspan></text>
    <use
       x="0"
       y="0"
       xlink:href="#g10066"
       id="use10075-0"
       width="100%"
       height="100%"
       transform="matrix(1,0,0,-1,39.595612,93.349433)"
       style="stroke-width:14.1111" />
    <use
       x="0"
       y="0"
       xlink:href="#g10066"
       id="use10579-3"
       width="100%"
       height="100%"
       transform="translate(52.656768,-0.39589669)"
       style="stroke-width:14.1111" />
    <use
       x="0"
       y="0"
       xlink:href="#g10066"
       id="use10075-9"
       width="100%"
       height="100%"
       transform="matrix(1,0,0,-1,65.592867,93.38618)"
       style="stroke-width:14.1111" />
    <use
       x="0"
       y="0"
       xlink:href="#g10066"
       id="use10579-2"
       width="100%"
       height="100%"
       transform="translate(79.024075,0.44081163)"
       style="stroke-width:14.1111" />
    <use
       x="0"
       y="0"
       xlink:href="#g10066"
       id="use10075-0-5"
       width="100%"
       height="100%"
       transform="matrix(1,0,0,-1,91.140546,93.79025)"
       style="stroke-width:14.1111" />
    <use
       x="0"
       y="0"
       xlink:href="#g10066"
       id="use10579-3-4"
       width="100%"
       height="100%"
       transform="translate(104.2017,0.04491507)"
       style="stroke-width:14.1111" />
    <use
       x="0"
       y="0"
       xlink:href="#g10066"
       id="use10075-05"
       width="100%"
       height="100%"
       transform="matrix(1,0,0,-1,118.00145,94.61538)"
       style="stroke-width:14.1111" />
    <use
       x="0"
       y="0"
       xlink:href="#g10066"
       id="use10579-9"
       width="100%"
       height="100%"
       transform="translate(130.81593,1.670012)"
       style="stroke-width:14.1111" />
    <use
       x="0"
       y="0"
       xlink:href="#g10066"
       id="use10075-0-4"
       width="100%"
       height="100%"
       transform="matrix(1,0,0,-1,144.78258,95.019447)"
       style="stroke-width:14.1111" />
    <use
       x="0"
       y="0"
       xlink:href="#g10066"
       id="use10579-3-6"
       width="100%"
       height="100%"
       transform="translate(157.84373,1.2741153)"
       style="stroke-width:14.1111" />
    <use
       x="0"
       y="0"
       xlink:href="#g10066"
       id="use10075-9-9"
       width="100%"
       height="100%"
       transform="matrix(1,0,0,-1,170.77983,95.056191)"
       style="stroke-width:14.1111" />
    <use
       x="0"
       y="0"
       xlink:href="#g10066"
       id="use10579-2-2"
       width="100%"
       height="100%"
       transform="translate(184.21104,2.1108237)"
       style="stroke-width:14.1111" />
    <use
       x="0"
       y="0"
       xlink:href="#g10066"
       id="use10075-0-5-2"
       width="100%"
       height="100%"
       transform="matrix(1,0,0,-1,196.32751,95.460258)"
       style="stroke-width:14.1111" />
    <use
       x="0"
       y="0"
       xlink:href="#g10066"
       id="use10579-3-4-4"
       width="100%"
       height="100%"
       transform="translate(209.38867,1.7149271)"
       style="stroke-width:14.1111" />
    <use
       x="0"
       y="0"
       xlink:href="#g10066"
       id="use10075-7"
       width="100%"
       height="100%"
       transform="matrix(1,0,0,-1,222.47336,96.497667)"
       style="stroke-width:14.1111" />
    <use
       x="0"
       y="0"
       xlink:href="#g10066"
       id="use10579-7"
       width="100%"
       height="100%"
       transform="translate(235.28784,3.552302)"
       style="stroke-width:14.1111" />
    <use
       x="0"
       y="0"
       xlink:href="#g10066"
       id="use10075-0-54"
       width="100%"
       height="100%"
       transform="matrix(1,0,0,-1,249.25449,96.901734)"
       style="stroke-width:14.1111" />
    <use
       x="0"
       y="0"
       xlink:href="#g10066"
       id="use10579-3-8"
       width="100%"
       height="100%"
       transform="translate(262.31564,3.1564067)"
       style="stroke-width:14.1111" />
    <use
       x="0"
       y="0"
       xlink:href="#g10066"
       id="use10075-9-1"
       width="100%"
       height="100%"
       transform="matrix(1,0,0,-1,275.25175,96.938485)"
       style="stroke-width:14.1111" />
    <use
       x="0"
       y="0"
       xlink:href="#g10066"
       id="use10579-2-28"
       width="100%"
       height="100%"
       transform="translate(288.68296,3.9931136)"
       style="stroke-width:14.1111" />
    <use
       x="0"
       y="0"
       xlink:href="#g10066"
       id="use10075-0-5-9"
       width="100%"
       height="100%"
       transform="matrix(1,0,0,-1,300.79943,97.342552)"
       style="stroke-width:14.1111" />
    <use
       x="0"
       y="0"
       xlink:href="#g10066"
       id="use10579-3-4-3"
       width="100%"
       height="100%"
       transform="translate(313.86058,3.5972183)"
       style="stroke-width:14.1111" />
    <use
       x="0"
       y="0"
       xlink:href="#g10066"
       id="use10075-05-6"
       width="100%"
       height="100%"
       transform="matrix(1,0,0,-1,327.66033,98.167682)"
       style="stroke-width:14.1111" />
    <use
       x="0"
       y="0"
       xlink:href="#g10066"
       id="use10579-9-8"
       width="100%"
       height="100%"
       transform="translate(340.4748,5.2223114)"
       style="stroke-width:14.1111" />
    <use
       x="0"
       y="0"
       xlink:href="#g10066"
       id="use10075-0-4-0"
       width="100%"
       height="100%"
       transform="matrix(1,0,0,-1,354.44147,98.571749)"
       style="stroke-width:14.1111" />
    <use
       x="0"
       y="0"
       xlink:href="#g10066"
       id="use10579-3-6-2"
       width="100%"
       height="100%"
       transform="translate(367.50262,4.8264161)"
       style="stroke-width:14.1111" />
    <use
       x="0"
       y="0"
       xlink:href="#g10066"
       id="use10075-9-9-1"
       width="100%"
       height="100%"
       transform="matrix(1,0,0,-1,380.43872,98.608494)"
       style="stroke-width:14.1111" />
    <use
       x="0"
       y="0"
       xlink:href="#g10066"
       id="use10579-2-2-0"
       width="100%"
       height="100%"
       transform="translate(393.86993,5.6631229)"
       style="stroke-width:14.1111" />
    <use
       x="0"
       y="0"
       xlink:href="#g10066"
       id="use10075-0-5-2-5"
       width="100%"
       height="100%"
       transform="matrix(1,0,0,-1,405.98639,99.012561)"
       style="stroke-width:14.1111" />
    <use
       x="0"
       y="0"
       xlink:href="#g10066"
       id="use10579-3-4-4-1"
       width="100%"
       height="100%"
       transform="translate(419.04755,5.2672276)"
       style="stroke-width:14.1111" />
  </g>
</svg>
